<svg width="256" height="256" viewBox="0 0 256 256" fill="none" xmlns="http://www.w3.org/2000/svg">
<path d="M256 0H0V256H256V0Z" fill="white"/>
<path d="M213.312 29.9206C213.258 29.8663 213.141 29.8663 212.969 29.8663C212.807 29.8121 212.581 29.6947 212.292 29.6947C211.904 29.6405 211.561 29.6405 211.227 29.6405C210.884 29.5866 210.658 29.5866 210.486 29.6405C210.261 29.6405 210.152 29.6405 210.152 29.6947C209.809 29.6947 208.969 29.8663 206.089 30.5978C203.552 31.1665 200.166 31.9519 193.9 33.5953C186.956 35.3381 179.625 37.2612 172.23 39.1752C165.34 40.8729 161.115 41.8842 157.729 42.733C154 43.5815 152.591 43.8616 152.022 44.0332C151.634 43.9155 150.785 43.69 148.808 43.356C147.002 42.9585 144.799 42.5071 141.305 42.1097C137.521 41.6583 133.802 41.4328 130.072 41.3243C126.461 41.2069 124.203 41.3243 122.343 41.4959C120.258 41.5501 119.409 41.6583 119.012 41.7217C118.452 41.4959 117.152 40.9811 113.594 39.5184C110.326 38.1101 106.145 36.3581 99.4275 33.5953C92.0956 30.4893 84.7011 27.3833 77.7575 24.6204C71.383 22.0831 67.9426 20.7829 65.3422 19.8802C62.2996 18.7512 61.3965 18.5257 61.0533 18.4714C60.7736 18.1825 60.1506 17.8485 58.7961 18.0744C57.5051 17.9567 55.9248 18.3541 53.7219 20.3858C51.3473 22.6973 49.1532 25.8572 47.0584 29.6947C45.0267 33.3064 43.8981 36.3042 42.995 38.9497C41.9299 41.5501 41.5324 42.7869 41.3608 43.4641C41.9838 42.9585 43.5098 42.0558 47.23 40.7556C50.5616 39.2387 54.6788 37.7669 61.3965 36.918C68.5025 36.1326 75.6716 36.2408 82.841 37.2612C89.4413 38.3356 93.5044 40.0783 96.8362 41.7756C100.448 43.2386 101.911 44.2044 102.588 44.7643C103.328 45.0445 104.791 45.839 107.725 48.2044C110.606 50.1818 113.874 52.8365 117.657 57.6853C121.441 62.94 124.484 68.5202 126.687 74.3891C128.61 79.8696 128.944 83.4817 128.998 86.5785C129.287 89.8562 129.115 91.2645 128.998 91.9418C129.061 91.6077 129.224 90.9848 129.738 89.4048C130.127 87.933 130.641 86.1272 131.824 83.4182C133.061 80.4838 134.415 77.721 136.059 74.9578C137.576 72.3035 138.704 70.7774 139.725 69.4864C140.736 68.0146 141.187 67.3916 141.476 67.1115C141.982 65.9829 143.39 63.9516 147.508 60.2857C151.011 56.4481 155.634 52.3851 163.932 48.2678C172.853 44.0871 182.333 41.3243 192.094 39.9698C201.232 38.8955 207.218 39.7443 212.184 40.9272C217.484 41.6583 219.741 42.4529 220.815 43.0128C220.762 42.733 220.59 42.2274 220.31 41.0984C220.03 39.9698 219.687 38.6696 219.01 36.9811C218.224 35.1753 217.375 33.6496 216.473 32.3494C215.57 31.1665 214.892 30.7152 214.324 30.435C213.71 29.9837 213.421 29.9206 213.312 29.9206ZM127.59 101.197C127.535 101.423 127.418 102.046 127.03 103.346C126.687 104.474 126.235 105.829 125.332 108.023C124.321 110.343 123.246 112.6 122.001 114.912C120.763 116.998 119.861 118.298 119.129 119.372C118.335 120.555 117.937 121.007 117.829 121.287C117.26 122.361 115.797 124.501 111.617 128.564C107.951 132.627 103.211 137.088 94.6329 142.397C85.2698 148.04 75.3918 152.609 65.2883 155.372C55.7535 157.521 49.6046 156.898 44.5754 155.652C39.1036 154.812 36.8464 153.566 35.8891 152.717C35.7178 152.609 35.3834 152.491 34.7605 152.157C34.1375 151.814 33.4064 151.48 32.3317 150.857C31.1488 150.18 30.0202 149.503 28.8916 148.771C27.8173 148.04 27.14 147.525 26.6344 147.137C26.0114 146.623 25.7856 146.397 25.7313 146.342C25.5597 147.417 25.5597 149.729 26.4628 154.812C26.9142 159.606 27.8712 165.195 31.0949 173.15C34.6431 181.502 39.2209 189.177 44.5754 196.229C49.6588 202.666 53.7219 205.881 57.2792 208.31C60.8278 211.244 62.5794 212.255 63.4825 212.653C63.5364 212.481 63.708 212.201 64.2771 211.632C64.6654 211.019 65.2341 210.341 66.3084 209.547C67.437 208.644 68.7284 207.913 70.1459 207.407C71.4369 206.892 72.4574 206.784 73.3062 206.784C74.1459 206.666 74.5972 206.666 74.8231 206.73C75.4461 206.612 76.5747 206.612 78.2723 207.235C79.9066 207.795 81.4865 208.761 83.0665 210.45C84.4209 212.427 85.1524 214.567 85.8836 216.039C86.6242 217.05 87.0756 217.05 87.527 216.662C88.0869 216.373 88.484 215.759 88.7098 215.361C88.7641 214.964 89.1073 214.404 90.3983 213.89C91.5269 213.159 93.1069 212.653 95.8789 213.212C98.9218 214.007 102.028 215.587 104.845 217.727C107.219 219.705 108.348 221.565 109.025 223.262C109.811 224.842 109.928 225.628 109.874 226.025C109.811 226.025 109.811 226.143 109.874 226.368C109.874 226.477 109.874 226.648 109.928 226.982C109.928 227.271 109.928 227.605 109.928 227.948C109.874 228.174 109.874 228.336 109.874 228.508C109.811 228.625 109.811 228.734 109.874 228.788C109.874 228.734 109.928 228.734 110.1 228.788C110.208 228.788 110.326 228.788 110.606 228.851C110.831 228.851 111.057 228.905 111.337 228.96C111.563 228.96 111.734 228.96 111.906 228.96C112.014 228.96 112.068 228.96 112.132 229.014C112.068 228.96 112.068 228.905 112.068 228.734C112.014 228.562 112.014 228.4 112.014 228.111C111.96 227.777 111.96 227.434 112.014 227.1C112.014 226.756 112.014 226.53 112.068 226.368C112.068 226.143 112.068 226.025 112.132 226.025C112.014 225.628 112.068 224.842 112.917 223.262C113.54 221.565 114.669 219.705 117.097 217.727C119.861 215.587 123.021 214.007 126.064 213.212C128.772 212.653 130.352 213.159 131.544 213.89C132.781 214.404 133.124 214.964 133.233 215.361C133.404 215.759 133.802 216.373 134.415 216.662C134.813 217.05 135.264 217.05 136.059 216.039C136.736 214.567 137.467 212.427 138.876 210.45C140.402 208.761 142.036 207.795 143.734 207.235C145.368 206.612 146.497 206.612 147.12 206.73C147.454 206.612 148.131 206.558 149.539 206.838C150.84 206.955 152.366 207.289 154.28 208.472C156.203 209.772 157.837 211.407 159.191 213.384C160.374 215.19 160.826 216.599 161.115 217.845C161.503 219.027 161.621 219.65 161.675 219.93C162.352 219.65 163.878 218.973 167.146 217.05C170.252 215.361 173.981 213.212 179.11 209.267C184.419 204.924 189.331 200.346 193.845 195.723C197.963 191.434 200.103 188.725 201.8 186.522C203.778 184.094 204.509 183.082 204.843 182.631C205.069 182.288 205.583 181.556 206.712 180.094C207.723 178.676 208.852 177.096 210.603 174.613C212.355 171.967 213.99 169.367 215.624 166.712C217.096 164.175 217.935 162.541 218.613 161.187C219.353 159.661 219.633 159.038 219.741 158.758C219.064 158.875 217.547 159.101 213.99 159.381C210.712 159.715 206.766 160.004 200.328 160.004C193.394 159.941 186.45 159.606 179.561 158.983C173.079 158.252 169.069 157.458 165.792 156.618C162.18 155.769 160.663 155.2 160.04 154.92C159.02 154.749 157.106 154.243 153.548 152.157C149.937 150.523 145.991 148.148 141.413 142.957C136.673 137.142 132.953 130.596 130.244 123.544C127.761 116.826 127.309 112.149 127.364 108.14C126.966 103.905 127.309 102.046 127.59 101.197ZM114.1 137.205C113.937 137.142 113.874 137.088 114.497 137.313C114.949 137.431 115.852 137.711 118.001 138.442C120.42 139.291 123.246 140.302 125.838 141.376C128.041 142.334 129.17 142.957 129.901 143.462C130.696 143.977 130.804 144.085 130.804 144.203C130.975 144.031 131.255 144.085 130.867 145.665C130.804 146.912 130.298 148.997 127.987 153.62C124.826 159.101 120.763 165.25 117.378 170.55C114.723 174.902 113.874 176.59 113.423 177.547C112.691 178.847 112.809 178.794 112.863 178.45C112.917 178.847 113.034 178.902 112.411 177.611C111.68 176.419 110.551 174.387 108.682 170.324C106.651 165.701 104.565 160.618 102.533 155.941C100.502 151.706 99.2016 149.449 98.4705 148.04C97.8475 146.397 98.073 146.288 98.3619 146.397C98.2989 146.288 98.3619 146.117 99.2016 145.494C99.8788 144.817 100.954 143.977 103.102 142.731C105.468 141.322 108.123 139.968 110.434 138.839C112.357 137.819 113.197 137.485 113.712 137.313C114.272 137.034 114.217 137.088 114.1 137.205C114.046 137.142 114.046 137.142 114.1 137.205Z" fill="black"/>
<path d="M124.547 237.764C124.6 237.764 124.6 237.819 124.375 237.764C124.095 237.764 123.698 237.71 122.849 237.259C121.775 236.753 120.592 236.076 119.689 235.11C118.903 234.044 118.614 233.078 118.56 232.175C118.388 231.218 118.56 230.713 118.677 230.433C118.56 230.144 118.614 229.638 119.237 228.627C119.689 227.498 120.537 226.252 122.343 224.952C124.375 223.543 126.686 222.469 128.944 221.963C130.921 221.566 132.104 221.909 133.007 222.415C133.91 222.758 134.135 223.092 134.253 223.372C134.415 223.661 134.704 224.049 135.156 224.275C135.435 224.501 135.716 224.564 136.339 223.887C136.844 222.92 137.413 221.512 138.478 220.212C139.607 219.083 140.853 218.469 142.09 218.126C143.336 217.729 144.122 217.729 144.636 217.792C145.024 217.674 145.819 217.62 147.282 218.018C148.7 218.243 150.28 218.749 151.914 220.329C153.494 222.081 154.623 224.221 155.3 226.595C155.859 228.735 155.751 230.207 155.525 231.444C155.408 232.69 155.246 233.142 155.128 233.367C155.246 233.647 155.246 234.207 153.891 235.002C152.645 235.787 150.668 236.582 146.605 237.259C141.81 237.764 136.564 237.936 131.995 237.99C128.041 238.044 126.352 237.882 125.386 237.819C124.203 237.764 124.258 237.764 124.547 237.764Z" fill="black"/>
<path d="M94.7502 236.238C94.6872 236.238 94.6329 236.238 94.9127 236.183C95.1385 236.183 95.4817 236.183 96.3302 235.732C97.2333 235.226 98.2445 234.495 99.1473 233.42C99.8245 232.292 100.105 231.271 100.222 230.314C100.33 229.357 100.168 228.789 100.105 228.509C100.168 228.175 100.105 227.606 99.599 226.531C99.1473 225.348 98.3619 224.048 96.7819 222.64C94.8587 221.114 92.7728 219.985 90.7415 219.479C88.8814 219.082 87.8067 219.425 87.0755 219.985C86.2267 220.328 86.0008 220.725 85.9469 221.005C85.7753 221.285 85.4952 221.683 85.1524 221.908C84.8183 222.188 84.5294 222.188 84.0234 221.511C83.5178 220.5 82.9491 219.028 82.0463 217.674C80.9808 216.491 79.8522 215.813 78.7775 215.416C77.6489 214.965 76.9178 214.965 76.5203 215.082C76.1232 214.965 75.3917 214.856 74.0915 215.308C72.7371 215.534 71.3287 216.094 69.8569 217.728C68.34 219.597 67.3196 221.908 66.7597 224.391C66.191 226.648 66.3626 228.229 66.5884 229.529C66.6423 230.82 66.8139 231.335 66.9225 231.615C66.7597 231.895 66.7597 232.463 68.0511 233.303C69.1254 234.152 70.9312 235.001 74.6602 235.678C78.9491 236.238 83.7436 236.463 87.9783 236.526C91.5269 236.581 93.1068 236.409 94.0099 236.301C95.0842 236.238 94.9127 236.238 94.7502 236.238C94.6872 236.238 94.6872 236.238 94.7502 236.238Z" fill="black"/>
<path fill-rule="evenodd" clip-rule="evenodd" d="M203.311 140.175C227.023 134.276 241.854 111.841 236.437 90.0648C231.019 68.2885 207.405 55.4171 183.694 61.316C159.982 67.2146 145.151 89.6498 150.568 111.426C155.985 133.202 179.599 146.074 203.311 140.175ZM192.683 100.796C200.587 98.8293 205.531 91.3511 203.725 84.0922C201.919 76.8333 194.048 72.543 186.144 74.5094C178.24 76.4755 173.296 83.954 175.102 91.2129C176.908 98.4714 184.779 102.762 192.683 100.796Z" fill="black"/>
<path fill-rule="evenodd" clip-rule="evenodd" d="M71.8592 134.305C95.5711 128.406 110.402 105.971 104.985 84.1944C99.5674 62.4181 75.9534 49.547 52.2415 55.4459C28.5296 61.3445 13.6987 83.7797 19.1158 105.556C24.5333 127.332 48.1473 140.204 71.8592 134.305ZM76.2064 98.0873C84.1106 96.1213 89.054 88.6428 87.2486 81.3839C85.4427 74.1254 77.5712 69.8346 69.6673 71.8011C61.7635 73.7675 56.8197 81.2456 58.6255 88.5045C60.4314 95.7634 68.3026 100.054 76.2064 98.0873Z" fill="black"/>
</svg>
