<svg width="258" height="258" viewBox="0 0 258 258" fill="none" xmlns="http://www.w3.org/2000/svg">
<path d="M219.302 25.481C219.244 25.4239 219.121 25.4239 218.94 25.4239C218.768 25.3667 218.53 25.2428 218.225 25.2428C217.815 25.1856 217.453 25.1856 217.1 25.1856C216.738 25.1284 216.5 25.1284 216.319 25.1856C216.081 25.1856 215.966 25.1856 215.966 25.2428C215.604 25.2428 214.718 25.4239 211.678 26.1958C209 26.7962 205.426 27.6253 198.812 29.3597C191.484 31.199 183.746 33.2288 175.941 35.2492C168.669 37.0408 164.209 38.1082 160.636 39.004C156.7 39.8998 155.213 40.1952 154.613 40.3763C154.203 40.2524 153.307 40.0141 151.22 39.6615C149.314 39.2422 146.989 38.7657 143.301 38.3464C139.308 37.8699 135.381 37.6317 131.446 37.5173C127.634 37.3934 125.251 37.5173 123.288 37.6984C121.087 37.7555 120.191 37.8699 119.771 37.9366C119.181 37.6984 117.808 37.1552 114.053 35.6113C110.604 34.1247 106.191 32.2759 99.101 29.3597C91.3627 26.0814 83.5578 22.8031 76.2293 19.887C69.5012 17.2091 65.8703 15.8368 63.1256 14.8838C59.9141 13.6925 58.9611 13.4543 58.5989 13.3971C58.3035 13.0922 57.646 12.7396 56.2165 12.9778C54.8537 12.8539 53.186 13.2732 50.8607 15.4175C48.3543 17.8571 46.0385 21.1926 43.8276 25.2428C41.6834 29.0547 40.4921 32.2187 39.5391 35.0109C38.4146 37.7555 37.9953 39.0611 37.8142 39.7759C38.4718 39.2422 40.0824 38.2892 44.0087 36.9169C47.5252 35.3159 51.8708 33.7625 58.9611 32.8667C66.4611 32.0376 74.0279 32.152 81.5946 33.2288C88.561 34.3629 92.8494 36.2022 96.366 37.9938C100.178 39.5376 101.722 40.5573 102.436 41.1482C103.218 41.4436 104.762 42.2822 107.859 44.7791C110.899 46.8661 114.349 49.6679 118.342 54.7855C122.335 60.3319 125.546 66.2214 127.872 72.4158C129.902 78.2004 130.254 82.0124 130.311 85.2812C130.616 88.7405 130.435 90.2272 130.311 90.9419C130.378 90.5893 130.55 89.9317 131.093 88.264C131.503 86.7106 132.046 84.8047 133.294 81.9457C134.6 78.8485 136.029 75.9323 137.764 73.0162C139.365 70.2144 140.556 68.6038 141.633 67.241C142.7 65.6877 143.177 65.0301 143.482 64.7347C144.015 63.5435 145.502 61.3992 149.848 57.5301C153.545 53.4799 158.425 49.1914 167.183 44.8458C176.598 40.4334 186.605 37.5173 196.906 36.0878C206.551 34.9538 212.869 35.8496 218.11 37.098C223.704 37.8699 226.087 38.7085 227.221 39.2994C227.164 39.004 226.983 38.4703 226.687 37.2791C226.392 36.0878 226.03 34.7155 225.315 32.9334C224.486 31.0274 223.59 29.4169 222.637 28.0446C221.684 26.7962 220.969 26.3197 220.369 26.0242C219.721 25.5477 219.416 25.481 219.302 25.481ZM128.825 100.71C128.768 100.948 128.644 101.606 128.234 102.978C127.872 104.169 127.395 105.599 126.442 107.915C125.375 110.364 124.241 112.746 122.926 115.186C121.62 117.387 120.667 118.76 119.895 119.894C119.057 121.142 118.637 121.619 118.523 121.914C117.923 123.048 116.379 125.307 111.966 129.595C108.097 133.884 103.094 138.591 94.0406 144.195C84.1581 150.151 73.7324 154.973 63.0685 157.889C53.0049 160.158 46.515 159.5 41.2069 158.185C35.4318 157.299 33.0493 155.983 32.0391 155.088C31.858 154.973 31.5054 154.849 30.8479 154.497C30.1903 154.135 29.4184 153.782 28.2843 153.125C27.0359 152.41 25.8447 151.695 24.6534 150.923C23.5194 150.151 22.8046 149.608 22.271 149.198C21.6134 148.655 21.3752 148.417 21.318 148.36C21.1369 149.494 21.1369 151.933 22.0899 157.299C22.5664 162.359 23.5766 168.258 26.9787 176.654C30.724 185.469 35.5556 193.569 41.2069 201.012C46.5722 207.807 50.8607 211.2 54.6154 213.763C58.3607 216.86 60.2095 217.928 61.1625 218.347C61.2197 218.166 61.4007 217.871 62.0011 217.27C62.4109 216.622 63.0113 215.907 64.1454 215.069C65.3366 214.116 66.6994 213.344 68.1956 212.81C69.5583 212.267 70.6352 212.153 71.531 212.153C72.4173 212.029 72.8938 212.029 73.132 212.096C73.7896 211.972 74.9809 211.972 76.7725 212.629C78.4974 213.22 80.1651 214.24 81.8328 216.022C83.2623 218.109 84.0343 220.367 84.8062 221.921C85.5876 222.988 86.0641 222.988 86.5406 222.578C87.1315 222.273 87.5508 221.625 87.789 221.206C87.8462 220.787 88.2083 220.196 89.5711 219.653C90.7624 218.881 92.4301 218.347 95.3558 218.938C98.5674 219.777 101.846 221.444 104.819 223.703C107.325 225.79 108.517 227.753 109.231 229.545C110.06 231.213 110.184 232.042 110.127 232.461C110.06 232.461 110.06 232.585 110.127 232.823C110.127 232.937 110.127 233.118 110.184 233.471C110.184 233.776 110.184 234.129 110.184 234.491C110.127 234.729 110.127 234.901 110.127 235.082C110.06 235.206 110.06 235.32 110.127 235.377C110.127 235.32 110.184 235.32 110.365 235.377C110.48 235.377 110.604 235.377 110.899 235.444C111.137 235.444 111.376 235.501 111.671 235.558C111.909 235.558 112.09 235.558 112.271 235.558C112.386 235.558 112.443 235.558 112.51 235.615C112.443 235.558 112.443 235.501 112.443 235.32C112.386 235.139 112.386 234.967 112.386 234.662C112.329 234.31 112.329 233.948 112.386 233.595C112.386 233.233 112.386 232.995 112.443 232.823C112.443 232.585 112.443 232.461 112.51 232.461C112.386 232.042 112.443 231.213 113.339 229.545C113.996 227.753 115.188 225.79 117.751 223.703C120.667 221.444 124.003 219.777 127.214 218.938C130.073 218.347 131.741 218.881 132.999 219.653C134.304 220.196 134.667 220.787 134.781 221.206C134.962 221.625 135.381 222.273 136.029 222.578C136.449 222.988 136.925 222.988 137.764 221.921C138.479 220.367 139.25 218.109 140.737 216.022C142.348 214.24 144.073 213.22 145.864 212.629C147.589 211.972 148.78 211.972 149.438 212.096C149.791 211.972 150.505 211.914 151.992 212.21C153.364 212.334 154.975 212.686 156.995 213.935C159.025 215.307 160.75 217.032 162.179 219.119C163.428 221.025 163.904 222.512 164.209 223.827C164.619 225.075 164.743 225.733 164.8 226.028C165.515 225.733 167.125 225.018 170.575 222.988C173.854 221.206 177.789 218.938 183.202 214.773C188.806 210.19 193.99 205.358 198.755 200.479C203.101 195.952 205.359 193.093 207.151 190.768C209.238 188.204 210.01 187.137 210.363 186.66C210.601 186.298 211.144 185.526 212.335 183.982C213.403 182.486 214.594 180.818 216.443 178.198C218.292 175.405 220.016 172.661 221.741 169.859C223.295 167.181 224.181 165.456 224.896 164.027C225.677 162.416 225.973 161.759 226.087 161.463C225.372 161.587 223.771 161.825 220.016 162.121C216.557 162.473 212.392 162.778 205.598 162.778C198.279 162.712 190.95 162.359 183.679 161.701C176.836 160.929 172.605 160.091 169.146 159.205C165.334 158.309 163.733 157.708 163.075 157.413C161.998 157.232 159.978 156.698 156.223 154.497C152.411 152.772 148.247 150.266 143.415 144.786C138.412 138.649 134.486 131.739 131.627 124.297C129.006 117.206 128.529 112.27 128.587 108.039C128.167 103.569 128.529 101.606 128.825 100.71ZM114.587 138.715C114.416 138.649 114.349 138.591 115.006 138.83C115.483 138.954 116.436 139.249 118.704 140.021C121.258 140.917 124.241 141.984 126.976 143.118C129.301 144.128 130.493 144.786 131.264 145.32C132.103 145.863 132.217 145.977 132.217 146.101C132.399 145.92 132.694 145.977 132.284 147.645C132.217 148.96 131.684 151.161 129.244 156.041C125.909 161.825 121.62 168.315 118.046 173.909C115.245 178.503 114.349 180.285 113.872 181.295C113.1 182.667 113.224 182.61 113.282 182.248C113.339 182.667 113.463 182.724 112.805 181.362C112.033 180.104 110.842 177.959 108.869 173.671C106.725 168.792 104.524 163.426 102.379 158.49C100.235 154.02 98.8628 151.638 98.0909 150.151C97.4333 148.417 97.6715 148.302 97.9765 148.417C97.9098 148.302 97.9765 148.121 98.8628 147.464C99.5775 146.749 100.712 145.863 102.98 144.548C105.477 143.061 108.278 141.631 110.718 140.44C112.748 139.363 113.634 139.011 114.177 138.83C114.768 138.534 114.711 138.591 114.587 138.715C114.53 138.649 114.53 138.649 114.587 138.715Z" fill="white"/>
<path d="M125.613 244.849C125.67 244.849 125.67 244.907 125.432 244.849C125.137 244.849 124.717 244.792 123.821 244.316C122.687 243.782 121.439 243.067 120.486 242.048C119.657 240.923 119.352 239.903 119.295 238.95C119.114 237.94 119.295 237.406 119.419 237.111C119.295 236.806 119.352 236.272 120.01 235.205C120.486 234.014 121.382 232.699 123.288 231.326C125.432 229.84 127.872 228.706 130.254 228.172C132.341 227.753 133.59 228.115 134.543 228.649C135.496 229.011 135.734 229.363 135.858 229.659C136.029 229.964 136.334 230.373 136.811 230.612C137.106 230.85 137.402 230.917 138.059 230.202C138.593 229.182 139.193 227.696 140.318 226.323C141.509 225.132 142.824 224.484 144.13 224.122C145.445 223.702 146.274 223.703 146.817 223.769C147.227 223.645 148.066 223.588 149.609 224.007C151.106 224.246 152.773 224.779 154.498 226.447C156.166 228.296 157.357 230.554 158.072 233.061C158.663 235.319 158.548 236.873 158.31 238.178C158.186 239.494 158.015 239.97 157.891 240.208C158.015 240.504 158.015 241.095 156.585 241.933C155.27 242.762 153.183 243.601 148.895 244.316C143.834 244.849 138.297 245.03 133.475 245.088C129.301 245.145 127.519 244.973 126.499 244.907C125.251 244.849 125.308 244.849 125.613 244.849Z" fill="white"/>
<path d="M94.1645 243.239C94.0978 243.239 94.0406 243.239 94.336 243.182C94.5743 243.182 94.9364 243.182 95.8322 242.705C96.7852 242.171 97.8526 241.4 98.8056 240.265C99.5203 239.074 99.8157 237.997 99.9396 236.987C100.054 235.977 99.8824 235.377 99.8157 235.081C99.8824 234.729 99.8157 234.128 99.2821 232.994C98.8056 231.746 97.9765 230.373 96.3087 228.887C94.2789 227.276 92.0775 226.085 89.9332 225.551C87.9701 225.132 86.836 225.494 86.0641 226.085C85.1683 226.447 84.93 226.866 84.8729 227.162C84.6918 227.457 84.3964 227.877 84.0342 228.115C83.6816 228.41 83.3767 228.41 82.843 227.696C82.3093 226.628 81.7089 225.075 80.7559 223.645C79.6314 222.397 78.4402 221.682 77.3061 221.263C76.1149 220.786 75.343 220.786 74.9236 220.91C74.5043 220.786 73.7324 220.672 72.3601 221.149C70.9306 221.387 69.4439 221.978 67.8906 223.703C66.2895 225.675 65.2127 228.115 64.6218 230.736C64.0214 233.118 64.2025 234.786 64.4407 236.158C64.4979 237.521 64.679 238.064 64.7933 238.36C64.6218 238.655 64.6218 239.255 65.9846 240.142C67.1186 241.037 69.0246 241.933 72.9605 242.648C77.4872 243.239 82.5476 243.477 87.0171 243.544C90.7623 243.601 92.4301 243.42 93.383 243.306C94.5171 243.239 94.336 243.239 94.1645 243.239C94.0978 243.239 94.0978 243.239 94.1645 243.239Z" fill="white"/>
<path fill-rule="evenodd" clip-rule="evenodd" d="M208.746 141.849C233.773 135.623 249.426 111.944 243.708 88.9601C237.991 65.9762 213.067 52.3911 188.04 58.617C163.013 64.843 147.36 88.5223 153.077 111.506C158.795 134.49 183.719 148.075 208.746 141.849ZM197.528 100.286C205.87 98.2109 211.088 90.3178 209.182 82.6564C207.276 74.9951 198.969 70.4668 190.626 72.5421C182.284 74.6174 177.066 82.5105 178.972 90.1718C180.878 97.8331 189.186 102.361 197.528 100.286Z" fill="white"/>
<path fill-rule="evenodd" clip-rule="evenodd" d="M70.0039 135.653C95.0309 129.427 110.684 105.748 104.966 82.7638C99.2488 59.7799 74.3253 46.1948 49.2983 52.4207C24.2713 58.6467 8.61804 82.326 14.3357 105.31C20.0534 128.294 44.9769 141.879 70.0039 135.653ZM74.5924 97.4275C82.9347 95.3522 88.1525 87.4591 86.2466 79.7978C84.3407 72.1365 76.0329 67.6081 67.6906 69.6834C59.3482 71.7587 54.1305 79.6518 56.0364 87.3131C57.9423 94.9745 66.2501 99.5028 74.5924 97.4275Z" fill="white"/>
</svg>
